<mxfile host="app.diagrams.net" modified="2023-11-16T08:36:35.747Z" agent="Mozilla/5.0 (Windows NT 10.0; Win64; x64; rv:109.0) Gecko/20100101 Firefox/119.0" etag="BKwdLBHfFxGmpJwIRlDC" version="22.1.1" type="device">
  <diagram name="Seite-1" id="kbsBOocuIGUak-FJUWRZ">
    <mxGraphModel dx="1242" dy="659" grid="1" gridSize="10" guides="1" tooltips="1" connect="1" arrows="1" fold="1" page="1" pageScale="1" pageWidth="827" pageHeight="1169" math="0" shadow="0">
      <root>
        <mxCell id="0" />
        <mxCell id="1" parent="0" />
        <mxCell id="OVJkCmspaLLBVEvKmcIJ-1" value="&lt;b&gt;Einkauf&lt;/b&gt;" style="html=1;fontStyle=0" vertex="1" parent="1">
          <mxGeometry x="170" y="120" width="120" height="40" as="geometry" />
        </mxCell>
        <mxCell id="OVJkCmspaLLBVEvKmcIJ-2" value="&lt;b&gt;Produkt&lt;/b&gt;" style="html=1;fontStyle=0" vertex="1" parent="1">
          <mxGeometry x="170" y="240" width="120" height="40" as="geometry" />
        </mxCell>
        <mxCell id="OVJkCmspaLLBVEvKmcIJ-3" value="" style="endArrow=diamondThin;html=1;endFill=0;verticalAlign=bottom;exitX=0.5;exitY=0;exitDx=0;exitDy=0;endSize=15;" edge="1" parent="1" source="OVJkCmspaLLBVEvKmcIJ-2">
          <mxGeometry relative="1" as="geometry">
            <mxPoint x="340" y="140" as="sourcePoint" />
            <mxPoint x="230" y="160" as="targetPoint" />
          </mxGeometry>
        </mxCell>
        <mxCell id="OVJkCmspaLLBVEvKmcIJ-4" value="&lt;sub&gt;&lt;font style=&quot;font-size: 9px;&quot;&gt;&lt;font style=&quot;font-size: 10px;&quot;&gt;1..&lt;/font&gt;&lt;/font&gt;&lt;font style=&quot;font-size: 9px;&quot;&gt;&lt;font style=&quot;font-size: 10px;&quot;&gt;*&lt;/font&gt;&lt;/font&gt;&lt;/sub&gt;" style="resizable=0;html=1;align=left;verticalAlign=bottom;labelBackgroundColor=none;fontSize=10;spacingTop=0;spacingLeft=4;spacing=0;spacingBottom=4;" connectable="0" vertex="1" parent="OVJkCmspaLLBVEvKmcIJ-3">
          <mxGeometry x="-1" relative="1" as="geometry" />
        </mxCell>
        <mxCell id="OVJkCmspaLLBVEvKmcIJ-5" value="&lt;sub&gt;&lt;font style=&quot;font-size: 9px;&quot;&gt;&lt;font style=&quot;font-size: 10px;&quot;&gt;*&lt;/font&gt;&lt;/font&gt;&lt;/sub&gt;" style="resizable=0;html=1;align=left;verticalAlign=top;labelBackgroundColor=none;fontSize=10;spacingLeft=7;spacing=0;spacingBottom=0;spacingRight=0;spacingTop=-4;" connectable="0" vertex="1" parent="OVJkCmspaLLBVEvKmcIJ-3">
          <mxGeometry x="1" relative="1" as="geometry" />
        </mxCell>
        <mxCell id="OVJkCmspaLLBVEvKmcIJ-6" style="edgeStyle=orthogonalEdgeStyle;rounded=0;orthogonalLoop=1;jettySize=auto;html=1;fontSize=10;endArrow=openThin;endFill=0;endSize=6;strokeWidth=1;strokeColor=#006666;" edge="1" parent="1" source="OVJkCmspaLLBVEvKmcIJ-7">
          <mxGeometry relative="1" as="geometry">
            <mxPoint x="230" y="100" as="targetPoint" />
          </mxGeometry>
        </mxCell>
        <mxCell id="OVJkCmspaLLBVEvKmcIJ-7" value="Ganzes" style="text;html=1;strokeColor=none;fillColor=none;align=center;verticalAlign=middle;whiteSpace=wrap;rounded=0;fontSize=10;fontColor=#006666;" vertex="1" parent="1">
          <mxGeometry x="200" y="40" width="60" height="20" as="geometry" />
        </mxCell>
        <mxCell id="OVJkCmspaLLBVEvKmcIJ-8" style="edgeStyle=orthogonalEdgeStyle;rounded=0;orthogonalLoop=1;jettySize=auto;html=1;strokeWidth=1;fontSize=10;endArrow=openThin;endFill=0;endSize=6;strokeColor=#006666;" edge="1" parent="1" source="OVJkCmspaLLBVEvKmcIJ-9">
          <mxGeometry relative="1" as="geometry">
            <mxPoint x="200" y="200" as="targetPoint" />
          </mxGeometry>
        </mxCell>
        <mxCell id="OVJkCmspaLLBVEvKmcIJ-9" value="Aggregation" style="text;html=1;strokeColor=none;fillColor=none;align=center;verticalAlign=middle;whiteSpace=wrap;rounded=0;fontSize=10;fontColor=#006666;" vertex="1" parent="1">
          <mxGeometry x="70" y="190" width="60" height="20" as="geometry" />
        </mxCell>
        <mxCell id="OVJkCmspaLLBVEvKmcIJ-10" style="edgeStyle=orthogonalEdgeStyle;rounded=0;orthogonalLoop=1;jettySize=auto;html=1;strokeWidth=1;fontSize=10;endArrow=openThin;endFill=0;endSize=6;strokeColor=#006666;" edge="1" parent="1" source="OVJkCmspaLLBVEvKmcIJ-11">
          <mxGeometry relative="1" as="geometry">
            <mxPoint x="230" y="300" as="targetPoint" />
          </mxGeometry>
        </mxCell>
        <mxCell id="OVJkCmspaLLBVEvKmcIJ-11" value="Teil" style="text;html=1;strokeColor=none;fillColor=none;align=center;verticalAlign=middle;whiteSpace=wrap;rounded=0;fontSize=10;fontColor=#006666;" vertex="1" parent="1">
          <mxGeometry x="200" y="340" width="60" height="20" as="geometry" />
        </mxCell>
        <mxCell id="OVJkCmspaLLBVEvKmcIJ-12" value="&lt;b&gt;Haus&lt;/b&gt;" style="html=1;fontStyle=0" vertex="1" parent="1">
          <mxGeometry x="350" y="120" width="120" height="40" as="geometry" />
        </mxCell>
        <mxCell id="OVJkCmspaLLBVEvKmcIJ-13" value="&lt;b&gt;Zimmer&lt;/b&gt;" style="html=1;fontStyle=0" vertex="1" parent="1">
          <mxGeometry x="350" y="240" width="120" height="40" as="geometry" />
        </mxCell>
        <mxCell id="OVJkCmspaLLBVEvKmcIJ-14" value="" style="endArrow=diamondThin;html=1;endFill=1;verticalAlign=bottom;exitX=0.5;exitY=0;exitDx=0;exitDy=0;endSize=15;" edge="1" parent="1" source="OVJkCmspaLLBVEvKmcIJ-13">
          <mxGeometry relative="1" as="geometry">
            <mxPoint x="520" y="140" as="sourcePoint" />
            <mxPoint x="410" y="160" as="targetPoint" />
          </mxGeometry>
        </mxCell>
        <mxCell id="OVJkCmspaLLBVEvKmcIJ-15" value="&lt;sub&gt;&lt;font style=&quot;font-size: 9px;&quot;&gt;&lt;font style=&quot;font-size: 10px;&quot;&gt;1..&lt;/font&gt;&lt;/font&gt;&lt;font style=&quot;font-size: 9px;&quot;&gt;&lt;font style=&quot;font-size: 10px;&quot;&gt;*&lt;/font&gt;&lt;/font&gt;&lt;/sub&gt;" style="resizable=0;html=1;align=left;verticalAlign=bottom;labelBackgroundColor=none;fontSize=10;spacingTop=0;spacingLeft=4;spacing=0;spacingBottom=4;" connectable="0" vertex="1" parent="OVJkCmspaLLBVEvKmcIJ-14">
          <mxGeometry x="-1" relative="1" as="geometry" />
        </mxCell>
        <mxCell id="OVJkCmspaLLBVEvKmcIJ-16" value="1" style="resizable=0;html=1;align=left;verticalAlign=top;labelBackgroundColor=none;fontSize=10;spacingLeft=7;spacing=0;spacingBottom=0;spacingRight=0;spacingTop=-1;" connectable="0" vertex="1" parent="OVJkCmspaLLBVEvKmcIJ-14">
          <mxGeometry x="1" relative="1" as="geometry" />
        </mxCell>
        <mxCell id="OVJkCmspaLLBVEvKmcIJ-17" style="edgeStyle=orthogonalEdgeStyle;rounded=0;orthogonalLoop=1;jettySize=auto;html=1;fontSize=10;endArrow=openThin;endFill=0;endSize=6;strokeWidth=1;strokeColor=#006666;" edge="1" parent="1" source="OVJkCmspaLLBVEvKmcIJ-18">
          <mxGeometry relative="1" as="geometry">
            <mxPoint x="410" y="100" as="targetPoint" />
          </mxGeometry>
        </mxCell>
        <mxCell id="OVJkCmspaLLBVEvKmcIJ-18" value="Ganzes" style="text;html=1;strokeColor=none;fillColor=none;align=center;verticalAlign=middle;whiteSpace=wrap;rounded=0;fontSize=10;fontColor=#006666;" vertex="1" parent="1">
          <mxGeometry x="380" y="40" width="60" height="20" as="geometry" />
        </mxCell>
        <mxCell id="OVJkCmspaLLBVEvKmcIJ-19" style="edgeStyle=orthogonalEdgeStyle;rounded=0;orthogonalLoop=1;jettySize=auto;html=1;strokeWidth=1;fontSize=10;endArrow=openThin;endFill=0;endSize=6;strokeColor=#006666;" edge="1" parent="1" source="OVJkCmspaLLBVEvKmcIJ-20">
          <mxGeometry relative="1" as="geometry">
            <mxPoint x="440" y="200" as="targetPoint" />
          </mxGeometry>
        </mxCell>
        <mxCell id="OVJkCmspaLLBVEvKmcIJ-20" value="Komposition" style="text;html=1;strokeColor=none;fillColor=none;align=center;verticalAlign=middle;whiteSpace=wrap;rounded=0;fontSize=10;fontColor=#006666;" vertex="1" parent="1">
          <mxGeometry x="510" y="190" width="70" height="20" as="geometry" />
        </mxCell>
        <mxCell id="OVJkCmspaLLBVEvKmcIJ-21" style="edgeStyle=orthogonalEdgeStyle;rounded=0;orthogonalLoop=1;jettySize=auto;html=1;strokeWidth=1;fontSize=10;endArrow=openThin;endFill=0;endSize=6;strokeColor=#006666;" edge="1" parent="1" source="OVJkCmspaLLBVEvKmcIJ-22">
          <mxGeometry relative="1" as="geometry">
            <mxPoint x="410" y="300" as="targetPoint" />
          </mxGeometry>
        </mxCell>
        <mxCell id="OVJkCmspaLLBVEvKmcIJ-22" value="Teil" style="text;html=1;strokeColor=none;fillColor=none;align=center;verticalAlign=middle;whiteSpace=wrap;rounded=0;fontSize=10;fontColor=#006666;" vertex="1" parent="1">
          <mxGeometry x="380" y="340" width="60" height="20" as="geometry" />
        </mxCell>
        <mxCell id="OVJkCmspaLLBVEvKmcIJ-23" value="" style="endArrow=none;html=1;rounded=0;strokeColor=#006666;strokeWidth=2;" edge="1" parent="1">
          <mxGeometry width="50" height="50" relative="1" as="geometry">
            <mxPoint x="320" y="370" as="sourcePoint" />
            <mxPoint x="320" y="30" as="targetPoint" />
          </mxGeometry>
        </mxCell>
      </root>
    </mxGraphModel>
  </diagram>
</mxfile>
